<svg width="603" height="184" viewBox="0 0 603 184" fill="none" xmlns="http://www.w3.org/2000/svg">
<g filter="url(#filter0_d_6_128)">
<path d="M56.9745 11.3867H587L548.221 162.387H16L56.9745 11.3867Z" fill="url(#paint0_linear_6_128)"/>
</g>
<path d="M137.136 102.459C134.203 102.464 131.562 101.856 129.213 100.633C126.89 99.384 125.061 97.654 123.723 95.443C122.386 93.2321 121.715 90.7266 121.71 87.9266C121.705 85.1267 122.367 82.6188 123.696 80.4031C125.026 78.1873 126.849 76.464 129.167 75.2332C131.511 73.9756 134.15 73.3442 137.083 73.3389C139.643 73.3343 141.951 73.7835 144.006 74.6864C146.061 75.5894 147.77 76.893 149.133 78.5972L144.101 83.1663C142.284 80.9829 140.082 79.8935 137.495 79.8982C135.975 79.9009 134.616 80.2367 133.417 80.9055C132.245 81.5743 131.327 82.5226 130.662 83.7505C130.024 84.9517 129.707 86.3389 129.71 87.9122C129.713 89.4856 130.035 90.885 130.677 92.1105C131.346 93.3093 132.268 94.241 133.442 94.9055C134.644 95.57 136.004 95.9009 137.524 95.8982C140.111 95.8935 142.309 94.7962 144.118 92.6063L149.166 97.1572C147.809 98.8663 146.105 100.176 144.053 101.086C142.002 101.997 139.696 102.454 137.136 102.459ZM166.241 102.406C163.281 102.412 160.613 101.79 158.238 100.541C155.889 99.2917 154.032 97.5618 152.668 95.3509C151.331 93.1399 150.66 90.6478 150.655 87.8745C150.65 85.1012 151.312 82.6066 152.642 80.3909C153.998 78.1751 155.848 76.4384 158.192 75.1809C160.563 73.9233 163.229 73.2918 166.189 73.2865C169.149 73.2811 171.803 73.903 174.152 75.1521C176.528 76.4012 178.384 78.1312 179.721 80.3421C181.085 82.553 181.77 85.0451 181.775 87.8184C181.78 90.5917 181.104 93.0863 179.748 95.3021C178.419 97.5178 176.569 99.2545 174.198 100.512C171.853 101.77 169.201 102.401 166.241 102.406ZM166.229 95.8464C167.643 95.8439 168.922 95.5082 170.068 94.8395C171.213 94.1708 172.118 93.2358 172.783 92.0346C173.447 90.8068 173.778 89.4062 173.775 87.8328C173.772 86.2595 173.436 84.8734 172.767 83.6746C172.099 82.4492 171.19 81.5041 170.042 80.8395C168.894 80.1749 167.614 79.8439 166.201 79.8465C164.787 79.849 163.508 80.1846 162.362 80.8534C161.217 81.5221 160.312 82.4704 159.647 83.6983C158.983 84.8995 158.652 86.2867 158.655 87.8601C158.658 89.4334 158.994 90.8328 159.663 92.0583C160.331 93.2571 161.24 94.1888 162.388 94.8534C163.535 95.518 164.816 95.849 166.229 95.8464ZM211.228 101.765L211.122 86.9255L203.943 99.0185L200.423 99.0248L193.242 87.3577L193.268 101.798L185.948 101.811L185.898 73.811L192.418 73.7992L202.287 89.9414L211.858 73.7642L218.378 73.7524L218.508 101.752L211.228 101.765ZM236.862 73.7191C239.395 73.7145 241.596 74.1372 243.464 74.9872C245.332 75.8105 246.774 77.0079 247.791 78.5794C248.807 80.1243 249.317 81.95 249.32 84.0567C249.324 86.1633 248.821 87.9909 247.81 89.5394C246.8 91.0879 245.362 92.2905 243.497 93.1472C241.632 93.9772 239.432 94.3945 236.899 94.3991L232.019 94.4079L232.032 101.728L224.112 101.742L224.062 73.7422L236.862 73.7191ZM236.408 88.16C238.035 88.157 239.261 87.8081 240.086 87.1133C240.911 86.3918 241.323 85.3778 241.32 84.0711C241.318 82.7644 240.903 81.7518 240.075 81.0333C239.247 80.3148 238.02 79.957 236.393 79.96L231.993 79.9679L232.008 88.1679L236.408 88.16ZM270.558 96.2184L258.718 96.2398L256.528 101.684L248.448 101.698L260.757 73.6761L268.557 73.662L281.008 101.64L272.768 101.654L270.558 96.2184ZM268.227 90.3826L264.611 81.4291L261.027 90.3956L268.227 90.3826ZM309.842 73.5876L309.893 101.588L303.373 101.599L290.986 86.7016L291.013 101.622L283.253 101.636L283.202 73.6356L289.722 73.6239L302.109 88.5216L302.082 73.6016L309.842 73.5876ZM330.461 91.5105L330.479 101.55L322.559 101.565L322.541 91.4047L311.829 73.584L320.189 73.569L326.849 84.677L333.469 73.545L341.149 73.5312L330.461 91.5105ZM381.444 73.4586L381.494 101.459L374.974 101.47L362.587 86.5726L362.614 101.493L354.854 101.507L354.804 73.5066L361.324 73.4948L373.711 88.3925L373.684 73.4726L381.444 73.4586ZM405.831 95.9747L393.991 95.996L391.801 101.44L383.721 101.455L396.03 73.4323L403.83 73.4182L416.281 101.396L408.041 101.411L405.831 95.9747ZM403.5 90.1389L399.884 81.1854L396.3 90.1518L403.5 90.1389ZM443.806 101.346L443.699 86.5064L436.521 98.5994L433.001 98.6057L425.82 86.9386L425.846 101.379L418.526 101.392L418.476 73.3918L424.996 73.3801L434.865 89.5223L444.436 73.3451L450.956 73.3333L451.086 101.333L443.806 101.346ZM479.159 95.1625L479.17 101.283L456.69 101.323L456.64 73.3231L478.6 73.2835L478.611 79.4035L464.491 79.4289L464.499 84.1489L476.939 84.1265L476.95 90.0465L464.51 90.0689L464.519 95.1889L479.159 95.1625Z" fill="white"/>
<defs>
<filter id="filter0_d_6_128" x="0" y="0.386719" width="603" height="183" filterUnits="userSpaceOnUse" color-interpolation-filters="sRGB">
<feFlood flood-opacity="0" result="BackgroundImageFix"/>
<feColorMatrix in="SourceAlpha" type="matrix" values="0 0 0 0 0 0 0 0 0 0 0 0 0 0 0 0 0 0 127 0" result="hardAlpha"/>
<feOffset dy="5"/>
<feGaussianBlur stdDeviation="8"/>
<feComposite in2="hardAlpha" operator="out"/>
<feColorMatrix type="matrix" values="0 0 0 0 0 0 0 0 0 0 0 0 0 0 0 0 0 0 0.34 0"/>
<feBlend mode="normal" in2="BackgroundImageFix" result="effect1_dropShadow_6_128"/>
<feBlend mode="normal" in="SourceGraphic" in2="effect1_dropShadow_6_128" result="shape"/>
</filter>
<linearGradient id="paint0_linear_6_128" x1="144.246" y1="187.553" x2="587.233" y2="166.883" gradientUnits="userSpaceOnUse">
<stop stop-color="#0D8AF4"/>
<stop offset="0.109375" stop-color="#1990DE"/>
<stop offset="0.317708" stop-color="#1B91D9"/>
<stop offset="0.770833" stop-color="#50B3F0"/>
<stop offset="1" stop-color="#9EF9FF"/>
</linearGradient>
</defs>
</svg>
